<?xml version="1.0" standalone="no"?>
<!DOCTYPE svg PUBLIC "-//W3C//DTD SVG 20010904//EN"
 "http://www.w3.org/TR/2001/REC-SVG-20010904/DTD/svg10.dtd">
<svg version="1.0" xmlns="http://www.w3.org/2000/svg"
 width="512.000000pt" height="512.000000pt" viewBox="0 0 512.000000 512.000000"
 preserveAspectRatio="xMidYMid meet">

<g transform="translate(0.000000,512.000000) scale(0.100000,-0.100000)"
fill="currentColor" stroke="none">
<path d="M1250 4885 c-173 -27 -373 -109 -519 -212 -36 -26 -107 -88 -156
-137 -143 -144 -239 -302 -300 -496 -55 -177 -55 -172 -55 -1480 0 -1319 0
-1305 59 -1491 61 -189 157 -346 301 -489 143 -144 300 -240 489 -301 175 -56
222 -59 939 -59 l654 0 29 29 29 29 0 851 0 851 -29 32 -29 33 -251 3 -251 3
0 219 0 220 249 0 c250 0 250 0 278 24 l28 24 5 419 c6 450 8 461 63 556 31
53 117 134 180 172 133 77 311 123 517 132 110 5 299 -7 353 -23 15 -5 17 -24
17 -209 l0 -204 -227 -3 -228 -3 -55 -31 c-93 -53 -146 -154 -152 -289 -1 -33
-1 -160 0 -283 l2 -224 29 -29 29 -29 272 0 272 0 -6 -27 c-3 -16 -17 -102
-31 -193 -14 -91 -28 -177 -31 -192 l-6 -28 -224 0 c-238 0 -270 -5 -294 -49
-14 -27 -14 -1704 0 -1731 26 -48 38 -50 310 -50 296 0 399 12 558 65 433 145
749 522 817 974 22 142 22 2460 0 2602 -79 527 -496 945 -1022 1024 -137 21
-2480 21 -2613 0z m2685 -218 c360 -98 633 -372 733 -732 l27 -100 0 -1275 0
-1275 -27 -100 c-100 -361 -376 -637 -733 -731 -90 -24 -123 -27 -322 -32
l-223 -4 0 716 0 716 224 0 c210 0 225 1 249 21 35 27 40 45 97 408 45 288 48
316 35 348 -25 58 -50 63 -345 63 l-260 0 0 146 c0 80 -4 143 -9 140 -4 -3 -2
32 5 77 21 131 10 127 325 127 276 0 305 4 329 49 6 13 10 142 10 349 0 317
-1 330 -21 355 -32 42 -182 73 -404 83 -506 24 -912 -157 -1049 -469 -49 -109
-56 -179 -56 -532 l0 -325 -235 0 c-250 0 -292 -6 -314 -48 -7 -14 -11 -141
-11 -377 l0 -357 29 -29 29 -29 251 0 251 0 0 -715 0 -716 -617 3 -618 4 -96
26 c-399 109 -685 419 -753 817 -14 83 -16 235 -16 1291 0 1056 2 1208 16
1291 73 426 403 758 829 833 67 12 287 14 1325 13 l1245 -2 100 -28z"/>
</g>
</svg>
